# AST/ASF file generated using VICON BodyLanguage
# -----------------------------------------------
:version 1.10
:name VICON
:units
  mass 1.0
  length 0.45
  angle deg
:documentation
   .ast/.asf automatically generated from VICON data using
   VICON BodyBuilder and BodyLanguage model FoxedUp or BRILLIANT.MOD
:root
   order TX TY TZ RX RY RZ
   axis XYZ
   position 0 0 0  
   orientation 0 0 0 
:bonedata
  begin
     id 1 
     name lhipjoint
     direction 0.624716 -0.669793 0.401383 
     length 2.38238 
     axis 0 0 0  XYZ
  end
  begin
     id 2 
     name lfemur
     direction 0.34202 -0.939693 0  
     length 6.4574  
     axis 0 0 20  XYZ
    dof rx ry rz
    limits (-160.0 20.0)
           (-70.0 70.0)
           (-60.0 70.0)
  end
  begin
     id 3 
     name ltibia
     direction 0.34202 -0.939693 0   
     length 7.68739   
     axis 0 0 20   XYZ
    dof rx
    limits (-10.0 170.0)
  end
  begin
     id 4 
     name lfoot
     direction 0.0681309 -0.187188 0.979959   
     length 2.46615   
     axis -90 7.62852e-016 20   XYZ
    dof rx rz
    limits (-45.0 90.0)
           (-70.0 20.0)
  end
  begin
     id 5 
     name ltoes
     direction 1.53566e-011 -4.21819e-011 1   
     length 1.2376   
     axis -90 7.62852e-016 20   XYZ
    dof rx
    limits (-90.0 20.0)
  end
  begin
     id 6 
     name rhipjoint
     direction -0.644473 -0.655875 0.393043   
     length 2.43293  
     axis 0 0 0  XYZ 
  end
  begin
     id 7 
     name rfemur
     direction -0.34202 -0.939693 0   
     length 6.7025   
     axis 0 0 -20   XYZ
    dof rx ry rz
    limits (-160.0 20.0)
           (-70.0 70.0)
           (-70.0 60.0)
  end
  begin
     id 8 
     name rtibia
     direction -0.34202 -0.939693 0   
     length 7.80547   
     axis 0 0 -20   XYZ
    dof rx
    limits (-10.0 170.0)
 end
 begin
     id 9 
     name rfoot
     direction -0.0756734 -0.207911 0.975216   
     length 2.40315  
     axis -90 -7.62852e-016 -20   XYZ
    dof rx rz
    limits (-45.0 90.0)
           (-20.0 70.0)
  end
  begin
     id 10 
     name rtoes
     direction -1.5353e-011 -4.21879e-011 1   
     length 1.20477   
     axis -90 -7.62852e-016 -20   XYZ
    dof rx
    limits (-90.0 20.0)
  end
  begin
     id 11 
     name lowerback
     direction 0.0160353 0.987463 -0.157037   
     length 2.18572   
     axis 0 0 0   XYZ
    dof rx ry rz
    limits (-20.0 45.0)
           (-30.0 30.0)
           (-30.0 30.0)
  end
  begin
     id 12 
     name upperback
     direction -0.00499661 0.999756 0.0215076   
     length 2.18016   
     axis 0 0 0   XYZ
    dof rx ry rz
    limits (-20.0 45.0)
           (-30.0 30.0)
           (-30.0 30.0)
  end
  begin
     id 13 
     name thorax
     direction -0.00921346 0.995333 0.0960619   
     length 2.24923   
     axis 0 0 0   XYZ
    dof rx ry rz
    limits (-20.0 45.0)
           (-30.0 30.0)
           (-30.0 30.0)
  end
  begin
     id 14 
     name lowerneck
     direction 0.0274184 0.991181 0.12965   
     length 1.70911   
     axis 0 0 0   XYZ
    dof rx ry rz
    limits (-20.0 45.0)
           (-30.0 30.0)
           (-30.0 30.0)
  end
  begin
     id 15 
     name upperneck
     direction 0.0015627 0.999959 -0.00893559   
     length 1.69312   
     axis 0 0 0   XYZ
    dof rx ry rz
    limits (-20.0 45.0)
           (-30.0 30.0)
           (-30.0 30.0)
  end
  begin
     id 16
     name head
     direction -0.00230242 0.999856 -0.0168327  
     length 1.80241  
     axis 0 0 0   XYZ
    dof rx ry rz
    limits (-20.0 45.0)
           (-30.0 30.0)
           (-30.0 30.0)
  end
  begin
     id 17 
     name lclavicle
     direction 0.955523 0.290741 -0.0494489  
     length 3.84275  
     axis 0 0 0   XYZ
    dof ry rz
    limits (-20.0 10.0)
           (0.0 20.0)
  end
  begin
     id 18 
     name lhumerus
     direction 1 -4.48967e-011 -3.18382e-028   
     length 5.17714   
     axis 180 -30 -90   XYZ
    dof rx ry rz
    limits (-60.0 90.0)
           (-90.0 90.0)
           (-90.0 90.0)
  end
  begin
     id 19
     name lradius
     direction 1 -4.48968e-011 -2.22911e-027   
     length 3.43679   
     axis 180 -30 -90   XYZ
    dof rx
    limits (-10.0 170.0)
  end
  begin
     id 20
     name lwrist
     direction 1 -4.48951e-011 -6.32245e-027   
     length 1.7184   
     axis 3.57107e-015 90 90   XYZ
    dof ry
    limits (-180.0 0.0)
 end
  begin
     id 21 
     name lhand
     direction 1 -4.48924e-011 -1.26431e-026   
     length 0.573117   
     axis 8.06912e-015 90 90   XYZ
    dof rx rz
    limits (-90.0 90.0)
           (-45.0 45.0)
  end
  begin
     id 22 
     name lfingers
     direction 1 -4.49001e-011 -2.52965e-026   
     length 0.462062   
     axis 1.61381e-014 90 90   XYZ
    dof rx
    limits (0.0 90.0)
  end
  begin
     id 23
     name lthumb
     direction 0.707107 -6.35008e-011 0.707107   
     length 0.663431   
     axis -90 45 -1.62303e-014   XYZ
    dof rx rz
    limits (-45.0 45.0)
           (-45.0 45.0)
  end
  begin
     id 24 
     name rclavicle
     direction -0.963917 0.256881 -0.0698287   
     length 3.73057  
     axis 0 0 0   XYZ 
    dof ry rz
    limits (-10.0 20.0)
           (-20.0 0.0)
  end
  begin
     id 25 
     name rhumerus
     direction -1 -4.48962e-011 -2.73982e-027  
     length 5.23908   
     axis 180 30 90   XYZ
    dof rx ry rz
    limits (-90.0 60.0)
           (-90.0 90.0)
           (-90.0 90.0)
  end
  begin
     id 26 
     name rradius
     direction -1 -4.48968e-011 -4.33218e-027   
     length 3.46485   
     axis 180 30 90   XYZ
    dof rx
    limits (-10.0 170.0)
  end
  begin
     id 27 
     name rwrist
     direction -1 -4.48989e-011 -6.32372e-027   
     length 1.73243   
     axis 3.57107e-015 -90 -90   XYZ
    dof ry
    limits (-180.0 0.0)
  end
  begin
     id 28
     name rhand
     direction -1 -4.48948e-011 -1.26448e-026   
     length 0.608752   
     axis 8.06912e-015 -90 -90   XYZ
    dof rx rz
    limits (-90.0 90.0)
           (-45.0 45.0)
  end
  begin
     id 29
     name rfingers
     direction -1 -4.48962e-011 -2.52913e-026   
     length 0.490792   
     axis 1.61381e-014 -90 -90   XYZ
    dof rx
    limits (0.0 90.0)
  end
  begin
     id 30
     name rthumb
     direction -0.707107 -6.34878e-011 0.707107   
     length 0.704682   
     axis -90 -45 1.62303e-014   XYZ
    dof rx rz
    limits (-45.0 45.0)
           (-45.0 45.0)
  end
:hierarchy
  begin
    root lhipjoint rhipjoint lowerback
    lhipjoint lfemur
    lfemur ltibia
    ltibia lfoot
    lfoot ltoes
    rhipjoint rfemur
    rfemur rtibia
    rtibia rfoot
    rfoot rtoes
    lowerback upperback
    upperback thorax
    thorax lowerneck lclavicle rclavicle
    lowerneck upperneck
    upperneck head
    lclavicle lhumerus
    lhumerus lradius
    lradius lwrist
    lwrist lhand lthumb
    lhand lfingers
    rclavicle rhumerus
    rhumerus rradius
    rradius rwrist
    rwrist rhand rthumb
    rhand rfingers
  end

#!OML:ASF G:\JayActor3\Patient Classification 1\Patient 1\Session 6\male.ASF
:FULLY-SPECIFIED
:DEGREES
187
root 50.1028 15.855 18.7935 -172.551 -35.6176 -183.578
lowerback -5.83529 -0.969991 -3.33974
upperback 0.0770035 -1.0613 -0.88426
thorax 3.39666 -0.58837 0.868447
lowerneck 2.05123 3.64997 5.21988
upperneck -7.31571 5.06844 1.79856
head -2.58456 2.23806 -0.451788
rclavicle 1.45237e-014 -5.26779e-015
rhumerus -35.9747 -6.81528 -84.213
rradius 31.2806
rwrist -3.06225
rhand -23.3699 -8.25985
rfingers 7.12502
rthumb 3.08591 -38.2173
lclavicle 1.45237e-014 -5.26779e-015
lhumerus -31.2631 0.222398 82.1472
lradius 30.6774
lwrist 25.219
lhand -17.7467 8.85352
lfingers 7.12502
lthumb 8.51482 38.6618
rfemur -21.5106 10.1745 19.0113
rtibia 44.659
rfoot -28.1068 -11.67
rtoes -1.14002
lfemur -7.64232 6.41327 -25.8366
ltibia 24.3712
lfoot -22.4277 3.55874
ltoes 11.0567
188
root 50.0917 15.8473 18.7897 -172.506 -35.5537 -183.671
lowerback -5.76461 -0.960242 -3.39974
upperback 0.0636888 -1.04768 -0.910772
thorax 3.34323 -0.581928 0.877204
lowerneck 2.12329 3.66455 5.23391
upperneck -7.35722 5.09229 1.73477
head -2.60926 2.25048 -0.477478
rclavicle 5.52715e-014 7.95139e-015
rhumerus -36.0567 -6.80559 -84.2103
rradius 31.2497
rwrist -3.0509
rhand -23.3421 -8.26641
rfingers 7.12502
rthumb 3.11276 -38.2234
lclavicle 5.52715e-014 7.95139e-015
lhumerus -31.145 0.219449 82.2492
lradius 30.491
lwrist 25.0365
lhand -17.8222 8.89548
lfingers 7.12502
lthumb 8.44192 38.7068
rfemur -21.5745 10.2203 18.8998
rtibia 44.8765
rfoot -28.208 -11.608
rtoes -1.22383
lfemur -7.59086 6.4849 -25.945
ltibia 24.3819
lfoot -22.5589 3.57049
ltoes 10.9618
189
root 50.0807 15.8383 18.7864 -172.459 -35.4801 -183.775
lowerback -5.68685 -0.946238 -3.45883
upperback 0.0473591 -1.02896 -0.944588
thorax 3.28231 -0.572804 0.878483
lowerneck 2.22236 3.67786 5.24015
upperneck -7.41664 5.11718 1.68389
head -2.6455 2.2624 -0.498778
rclavicle 8.15638e-015 2.28602e-015
rhumerus -36.147 -6.77906 -84.2169
rradius 31.2318
rwrist -3.05106
rhand -23.3122 -8.27016
rfingers 7.12502
rthumb 3.1416 -38.2268
lclavicle 8.15638e-015 2.28602e-015
lhumerus -30.9752 0.329926 82.326
lradius 30.1561
lwrist 24.6468
lhand -17.8984 8.93728
lfingers 7.12502
lthumb 8.36841 38.7515
rfemur -21.6676 10.2537 18.7753
rtibia 45.1487
rfoot -28.3089 -11.5322
rtoes -1.36161
lfemur -7.5419 6.58774 -26.0636
ltibia 24.4037
lfoot -22.7002 3.56011
ltoes 10.8498
190
root 50.0698 15.8281 18.7838 -172.407 -35.3824 -183.898
lowerback -5.58952 -0.925235 -3.53147
upperback 0.0277038 -1.00121 -0.98665
thorax 3.20667 -0.55919 0.879908
lowerneck 2.34417 3.69912 5.21587
upperneck -7.50639 5.15595 1.68296
head -2.69806 2.27873 -0.500456
rclavicle 2.96003e-015 2.40529e-014
rhumerus -36.242 -6.73422 -84.2351
rradius 31.2254
rwrist -3.06208
rhand -23.2768 -8.26117
rfingers 7.12502
rthumb 3.17579 -38.2173
lclavicle 2.96003e-015 2.40529e-014
lhumerus -30.7336 0.58577 82.3697
lradius 29.6418
lwrist 24.0127
lhand -17.9576 9.04331
lfingers 7.12502
lthumb 8.31127 38.8598
rfemur -21.797 10.2705 18.63
rtibia 45.4879
rfoot -28.4027 -11.4299
rtoes -1.55683
lfemur -7.49185 6.72094 -26.2005
ltibia 24.4337
lfoot -22.8493 3.52859
ltoes 10.7616
191
root 50.0583 15.8164 18.7819 -172.366 -35.2543 -184.038
lowerback -5.46723 -0.886259 -3.60233
upperback 0.011851 -0.950722 -1.04537
thorax 3.11963 -0.534075 0.865314
lowerneck 2.44956 3.72093 5.18977
upperneck -7.58686 5.1953 1.71416
head -2.74553 2.29432 -0.49105
rclavicle -4.436e-014 2.04748e-014
rhumerus -36.3411 -6.7053 -84.2612
rradius 31.2266
rwrist -3.06881
rhand -23.2388 -8.23619
rfingers 7.12502
rthumb 3.21253 -38.1917
lclavicle -4.436e-014 2.04748e-014
lhumerus -30.3958 0.978341 82.379
lradius 28.9246
lwrist 23.1183
lhand -17.955 9.27487
lfingers 7.12502
lthumb 8.31374 39.0913
rfemur -21.9549 10.2663 18.4638
rtibia 45.9101
rfoot -28.503 -11.2558
rtoes -1.7224
lfemur -7.4213 6.8834 -26.3553
ltibia 24.4664
lfoot -23.0064 3.47616
ltoes 10.7346
